<svg xmlns="http://www.w3.org/2000/svg" width="299.981" height="38.018" viewBox="0 0 576 73">
  <metadata><?xpacket begin="﻿" id="W5M0MpCehiHzreSzNTczkc9d"?>
<x:xmpmeta xmlns:x="adobe:ns:meta/" x:xmptk="Adobe XMP Core 5.6-c138 79.159824, 2016/09/14-01:09:01        ">
   <rdf:RDF xmlns:rdf="http://www.w3.org/1999/02/22-rdf-syntax-ns#">
      <rdf:Description rdf:about=""
            xmlns:xmp="http://ns.adobe.com/xap/1.0/">
         <xmp:CreatorTool>Adobe Photoshop CC 2017 (Windows)</xmp:CreatorTool>
      </rdf:Description>
   </rdf:RDF>
</x:xmpmeta>
                                                                                                    
                                                                                                    
                                                                                                    
                                                                                                    
                                                                                                    
                                                                                                    
                                                                                                    
                                                                                                    
                                                                                                    
                                                                                                    
                                                                                                    
                                                                                                    
                                                                                                    
                                                                                                    
                                                                                                    
                                                                                                    
                                                                                                    
                                                                                                    
                                                                                                    
                                                                                                    
                           
<?xpacket end="w"?></metadata>
<defs>
    <style>
      .cls-1, .cls-2 {
        fill-rule: evenodd;
      }

      .cls-2 {
        fill: #fc000c;
      }
    </style>
  </defs>
  <path id="Forward" class="cls-1" d="M51.8,10V2.8H3.1V69H51.8V61.8H10.6V39.5H47.4V32.2H10.6V10H51.8Zm83.5,33.6h23l16,25.4h8.9L165.8,42.3a28.614,28.614,0,0,0,5.7-1.9q10.3-4.5,10.3-16.9,0-9.6-6.1-15.1-6.1-5.6-16.2-5.6H127.8V69h7.5V43.6Zm0-33.7h23.3q7.1,0,11.4,3.65a12.372,12.372,0,0,1,4.3,9.95,12.288,12.288,0,0,1-1.5,6.4q-4,6.6-14.6,6.6H135.3V9.9Zm89.1-7.1H215L186.9,69h8.3l8.1-19.2h32.8L244.2,69h8.3ZM206.2,42.9l13.5-32.3,13.5,32.3h-27ZM302,2.8H248.3V10h23.1V69h7.5V10H302V2.8Zm57.5,0V40.7q0,10.8-6.4,16.7-5.6,5.1-14.3,5.1t-14.2-5.1q-6.4-6-6.4-16.7V2.8h-7.5V40.5q0,13.2,7.85,21.25T338.8,69.8q12.5,0,20.35-8.05T367,40.5V2.8h-7.5Zm78.6,0L414.8,34.2,391.1,2.8h-8.7V69h7.5V14.2l24.9,31.5,24.5-31.5V69h7.5V2.8h-8.7Zm22.1,56V69h9.7V58.8h-9.7Zm30.6-56h-7.5V69h7.5V2.8Zm21.3,9.1q-9.3,9.6-9.3,24t9.3,24q9.5,9.9,24.3,9.9t24.3-9.9q9.3-9.6,9.3-24t-9.3-24q-9.5-9.9-24.3-9.9t-24.3,9.9h0Zm5.2,42.9q-7-7.4-7-18.9t7-18.9q7.3-7.7,19.1-7.7t19.1,7.7q7,7.4,7,18.9t-7,18.9q-7.3,7.7-19.1,7.7t-19.1-7.7h0Z"/>
  <path id="Backward" class="cls-2" d="M110.4,43.6h-23L71.4,69H62.5L79.9,42.3a28.608,28.608,0,0,1-5.7-1.9Q63.9,35.9,63.9,23.5q0-9.6,6.1-15.1,6.1-5.6,16.2-5.6h31.7V69h-7.5V43.6Zm0-33.7H87.1q-7.1,0-11.4,3.65a12.37,12.37,0,0,0-4.3,9.95,12.288,12.288,0,0,0,1.5,6.4q4,6.6,14.6,6.6h22.9V9.9Z"/>
</svg>
